<svg xmlns="http://www.w3.org/2000/svg" viewBox="0 0 750 500"><g id="freepik--Floor--inject-9"><path d="M738.31,442.79l-2.19,0-6.43,0-24.72.05L614,443l-300,.08h-2.72v-.52h18.44v.52H310.14v-.52h17.31v.52H299.21v-.51h26v.5L101.63,443l-65-.08-17.39,0-4.49,0-1.53,0s.52,0,1.53,0l4.49,0,17.39-.05,65-.07,223.56-.09v.5h-26v-.51h28.24v.52H310.14v-.52h19.64v.52H311.34v-.52h2.72l300,.08,90.93.08,24.72.05,6.43,0Z" style="fill:#263238"></path></g><g id="freepik--Bridge--inject-9"><rect x="209.27" y="337.58" width="43.19" height="105.21" style="fill:#455a64"></rect><rect x="446.32" y="333.82" width="41.93" height="108.97" style="fill:#455a64"></rect><rect x="686.22" y="333.82" width="41.93" height="108.97" style="fill:#455a64"></rect><path d="M252.46,337.58S280.65,307,350,307s96.54,30.59,96.54,30.59h41.95l1.06-54.49H209.27l0,54.49Z" style="fill:#455a64"></path><path d="M19.49,337.58S43.46,307,112.76,307s96.51,30.59,96.51,30.59h43V283.09H18.43" style="fill:#455a64"></path><path d="M488.32,337.58S520.5,307,589.61,307s96.61,30.59,96.61,30.59h42.55V283.09H445.2l1.29,54.49Z" style="fill:#455a64"></path><path d="M728.77,293.86c0,.14-158.44.26-353.85.26S21.05,294,21.05,293.86s158.4-.26,353.87-.26S728.77,293.71,728.77,293.86Z" style="fill:#263238"></path><path d="M488.25,363a5.62,5.62,0,0,1,0-.63c0-.44,0-1,0-1.72,0-1.54-.06-3.67-.1-6.33l.17.17c-6.28.06-15.69.09-26.19.09l.26-.26h0v2.21c0,.74,0,1.48,0,2.2V363l-.25-.26,18.67.12,5.49.07,1.5,0,.53,0a2.56,2.56,0,0,1-.47,0l-1.44,0-5.44.07-18.84.12h-.26v-8.9h0l.26-.26c10.5,0,19.91,0,26.19.09h.18v.17c0,2.7-.07,4.87-.09,6.43,0,.7,0,1.26,0,1.69A2.77,2.77,0,0,1,488.25,363Z" style="fill:#263238"></path><g style="opacity:0.2"><rect x="452.03" y="362.96" width="26.2" height="8.68"></rect></g><path d="M256,302.56a4,4,0,0,1,0-.62c0-.44,0-1,0-1.72,0-1.54-.05-3.68-.09-6.33l.17.17c-6.29.05-15.7.09-26.2.09l.26-.26h0v4.43c0,1.45,0,2.86,0,4.23l-.25-.25,18.67.12,5.5.07,1.49,0,.54,0a2.76,2.76,0,0,1-.48,0l-1.44,0-5.44.07-18.84.12h-.25v-.26c0-1.37,0-2.78,0-4.23V293.9h0l.26-.26c10.5,0,19.91,0,26.2.09h.17v.17c0,2.7-.07,4.87-.1,6.43,0,.69,0,1.25,0,1.69A3.59,3.59,0,0,1,256,302.56Z" style="fill:#263238"></path><g style="opacity:0.2"><rect x="219.75" y="302.56" width="26.2" height="8.68"></rect></g><path d="M712.84,363a3,3,0,0,1,0-.63c0-.44,0-1,0-1.72,0-1.54-.06-3.67-.1-6.33l.18.17c-6.29.06-15.7.09-26.2.09l.26-.26h0v4.41c0,1.45,0,2.87,0,4.24l-.25-.26,18.67.12,5.5.07,1.49,0,.54,0a2.76,2.76,0,0,1-.48,0l-1.44,0-5.44.07-18.84.12h-.25V363c0-1.37,0-2.79,0-4.24v-4.41h0l.26-.26c10.5,0,19.91,0,26.2.09H713v.17c0,2.7-.07,4.87-.1,6.43,0,.7,0,1.26,0,1.69A3.67,3.67,0,0,1,712.84,363Z" style="fill:#263238"></path><path d="M509.6,306.22s0-.23,0-.62,0-1,0-1.73c0-1.53,0-3.67-.09-6.33l.17.17c-6.28.06-15.7.09-26.2.09l.26-.26h0V302c0,1.45,0,2.87,0,4.24l-.25-.25,18.67.11,5.5.08,1.49,0,.54,0a2.62,2.62,0,0,1-.48,0l-1.43,0-5.44.07-18.85.12h-.25v-.25c0-1.37,0-2.79,0-4.24v-4.42h0c.52-.52.15-.14.26-.26,10.5,0,19.92,0,26.2.09h.17v.17c0,2.7-.07,4.87-.09,6.43,0,.7,0,1.26,0,1.69A4.31,4.31,0,0,1,509.6,306.22Z" style="fill:#263238"></path><path d="M252.82,392.06a5.31,5.31,0,0,1,0-.62c0-.44,0-1,0-1.72,0-1.54-.06-3.68-.1-6.33l.17.17c-6.28.05-15.7.09-26.19.09l.26-.26h0v2.23c0,.74,0,1.47,0,2.2v4.23l-.25-.25,18.67.12,5.49.07,1.5,0,.53,0a3,3,0,0,1-.47,0l-1.44,0-5.44.07-18.84.12h-.26V383.4h0c.52-.52.15-.15.27-.26,10.49,0,19.91,0,26.19.09H253v.17c0,2.7-.07,4.87-.09,6.43,0,.69,0,1.25,0,1.69A2.71,2.71,0,0,1,252.82,392.06Z" style="fill:#263238"></path><path d="M227.6,357.31a4.3,4.3,0,0,1,0-.64c0-.46,0-1-.05-1.74,0-1.56-.06-3.69-.1-6.29l.19.19-18.15.07.26-.26h0v4.46c0,1.45,0,2.86,0,4.2l-.25-.24c5.24,0,9.74.07,13,.12l3.79.06a13.78,13.78,0,0,1,1.4.06,10.93,10.93,0,0,1-1.29.07l-3.73.06c-3.21.05-7.79.1-13.13.12h-.25v-.25c0-1.34,0-2.75,0-4.2v-4.46h0l.26-.26,18.15.07h.2v.19c0,2.64-.08,4.81-.1,6.4,0,.69,0,1.26-.05,1.71A2.65,2.65,0,0,1,227.6,357.31Z" style="fill:#263238"></path><path d="M440.06,302.83s0-.23,0-.64,0-1,0-1.75c0-1.56-.07-3.69-.11-6.28l.19.19-18.15.07.26-.26h0v4.46c0,1.45,0,2.86,0,4.2l-.25-.24c5.24,0,9.74.07,13,.11l3.79.07a13.78,13.78,0,0,1,1.4.06,10.07,10.07,0,0,1-1.29.06L435,303c-3.21.05-7.78.1-13.13.12h-.24v-.25c0-1.34,0-2.75,0-4.2,0-.72,0-1.46,0-2.21v-2.25h0l.26-.26,18.15.06h.2v.19c-.05,2.64-.08,4.81-.11,6.4,0,.69,0,1.26,0,1.71A2,2,0,0,1,440.06,302.83Z" style="fill:#263238"></path><path d="M56.43,302.71a2.87,2.87,0,0,1,0-.62c0-.45,0-1,0-1.74,0-1.55-.05-3.68-.09-6.31l.18.18-23.28.08c-.24.23.31-.32.26-.26h0v8.66l-.25-.25,16.6.12,4.87.07,1.33,0,.48,0a1.6,1.6,0,0,1-.42,0l-1.27,0-4.82.07L33.15,303H32.9v-8.92h0c-.06,0,.49-.5.26-.26l23.28.08h.18V294c0,2.67-.07,4.85-.09,6.42,0,.69,0,1.25,0,1.69A3.51,3.51,0,0,1,56.43,302.71Z" style="fill:#263238"></path><path d="M716.72,354.28s0-.24,0-.64,0-1.05,0-1.76c0-1.57-.06-3.69-.1-6.28l.19.2-15.92.06.26-.26h0v2.25c0,.75,0,1.49,0,2.22,0,1.45,0,2.85,0,4.19l-.24-.24c4.61,0,8.55.07,11.38.11l3.31.07a10.74,10.74,0,0,1,1.23.06,7.5,7.5,0,0,1-1.12.06l-3.26.07c-2.81,0-6.83.1-11.54.11h-.25v-.24c0-1.34,0-2.74,0-4.19v-4.47h0l.26-.26,15.92.06h.2v.19c0,2.64-.08,4.81-.1,6.4,0,.69,0,1.26-.05,1.71A2.28,2.28,0,0,1,716.72,354.28Z" style="fill:#263238"></path></g><g id="freepik--Birds--inject-9"><path d="M339.49,130.61s-.76-.26-2.18-.58a17.5,17.5,0,0,0-6.11-.23,16.44,16.44,0,0,0-8.22,3.55,17,17,0,0,0-5.8,9.21l0,.1-.17.66-.25-.62a18.3,18.3,0,0,0-7-8.39,17.68,17.68,0,0,0-8.49-2.83,18.88,18.88,0,0,0-6.06.55c-1.4.37-2.14.7-2.16.66a2.42,2.42,0,0,1,.53-.26,13.11,13.11,0,0,1,1.58-.56A18.07,18.07,0,0,1,310,134a18.65,18.65,0,0,1,7.14,8.57l-.42,0,0-.11a17.3,17.3,0,0,1,6-9.43,16.91,16.91,0,0,1,14.63-3.16,12.06,12.06,0,0,1,1.61.51A3.5,3.5,0,0,1,339.49,130.61Z" style="fill:#263238"></path><path d="M400.51,97.13s-.43-.12-1.21-.28a9.73,9.73,0,0,0-3.34-.1,9,9,0,0,0-4.47,2,9.3,9.3,0,0,0-3.16,5v0l-.17.66-.25-.62a10.05,10.05,0,0,0-3.78-4.58,9.7,9.7,0,0,0-4.63-1.56,10.44,10.44,0,0,0-3.32.27c-.77.19-1.18.36-1.19.32s.09-.07.28-.16a6.57,6.57,0,0,1,.87-.33,10,10,0,0,1,8.21,1.12,10.33,10.33,0,0,1,4,4.75l-.42,0v-.05a9.56,9.56,0,0,1,3.33-5.24,9.12,9.12,0,0,1,4.69-2,9.31,9.31,0,0,1,3.42.24,7.77,7.77,0,0,1,.88.3C400.42,97.07,400.52,97.12,400.51,97.13Z" style="fill:#263238"></path><path d="M360.62,83.43s-.42.48-1.18,1.33a29.42,29.42,0,0,0-2.86,3.87,28.14,28.14,0,0,0-4.25,15v.19l-.45,0a24.49,24.49,0,0,0-2.75-8.15,25,25,0,0,0-4.19-5.66A25.45,25.45,0,0,0,341.31,87c-.92-.64-1.46-1-1.44-1a2.13,2.13,0,0,1,.41.2c.26.15.66.34,1.13.66a23,23,0,0,1,3.76,3,25,25,0,0,1,4.32,5.68,24.7,24.7,0,0,1,2.83,8.28l-.44,0v-.19a27.68,27.68,0,0,1,4.44-15.22,25.41,25.41,0,0,1,3-3.82c.38-.42.73-.71.94-.92A1.74,1.74,0,0,1,360.62,83.43Z" style="fill:#263238"></path></g><g id="freepik--Train--inject-9"><path d="M209.27,234.06a85.82,85.82,0,0,1-5.94-7.51,86.65,86.65,0,0,1-5.53-7.83,87,87,0,0,1,5.94,7.52A88.24,88.24,0,0,1,209.27,234.06Z" style="fill:#263238"></path><path d="M108.31,282.91a8,8,0,0,1-5.62-2.28c-1.36-1.32-2.71-2.9-2.55-3.8a91.56,91.56,0,0,1,4.32-12.66c1.93-4.48,12.32-23.25,16-26.1a16.53,16.53,0,0,1,5.15-2.36,32.39,32.39,0,0,1,9.34-1.32H239.31a26.22,26.22,0,0,1,1.92,4.48c.16,1.12.08,39.4.08,39.4v4.64Z" style="fill:#e0e0e0"></path><path d="M124.59,242.86l-13.7,23.63a3.05,3.05,0,0,0,2.75,4.54H241.31V239.9l-111.06-.24A6.52,6.52,0,0,0,124.59,242.86Z" style="fill:#455a64"></path><path d="M163.05,282.81H135.43V247.23a1.92,1.92,0,0,1,1.91-1.92h23.8a1.92,1.92,0,0,1,1.91,1.92Z" style="fill:#455a64"></path><path d="M163.05,282.81a2.73,2.73,0,0,1,0-.35c0-.25,0-.58,0-1,0-.9,0-2.17,0-3.78,0-3.29-.05-8-.09-13.78,0-2.9,0-6.07,0-9.48,0-1.7,0-3.46,0-5.28v-1.37a2.7,2.7,0,0,0-.17-1.26,1.7,1.7,0,0,0-.87-.84,1.58,1.58,0,0,0-.61-.12h-.71l-12.07,0h-9.65c-.53,0-1.13,0-1.61,0a1.65,1.65,0,0,0-1.17.74,1.78,1.78,0,0,0-.27,1.08v8.76c0,3.27,0,6.45,0,9.54,0,6.16,0,11.91,0,17.1l-.22-.22,20,.11,5.6.06,1.48,0,.53,0a4.12,4.12,0,0,1-.48,0l-1.44,0-5.55.06-20.15.11h-.21v-.21c0-5.19,0-10.94,0-17.1q0-4.63,0-9.54v-8.76a2.33,2.33,0,0,1,.35-1.36,2.2,2.2,0,0,1,1.54-1c.62,0,1.12,0,1.68,0h22.44a2.09,2.09,0,0,1,.78.16,2.19,2.19,0,0,1,1.12,1.08,3.2,3.2,0,0,1,.2,1.47v1.38c0,1.83,0,3.61,0,5.33,0,3.43,0,6.62,0,9.54,0,5.79-.07,10.49-.09,13.78,0,1.59,0,2.83,0,3.72,0,.4,0,.71,0,.95S163.05,282.81,163.05,282.81Z" style="fill:#263238"></path><rect x="136.49" y="246.32" width="11.6" height="23.01" rx="0.9" style="fill:#f5f5f5"></rect><path d="M147.19,269.36h-9.81a.92.92,0,0,1-.92-.92V247.22a.92.92,0,0,1,.92-.92h9.81a.92.92,0,0,1,.92.92v21.22A.92.92,0,0,1,147.19,269.36Zm-9.81-23a.87.87,0,0,0-.87.87v21.22a.87.87,0,0,0,.87.87h9.81a.87.87,0,0,0,.87-.87V247.22a.87.87,0,0,0-.87-.87Z" style="fill:#263238"></path><rect x="150.2" y="246.32" width="11.6" height="23.01" rx="1.27" style="fill:#f5f5f5"></rect><path d="M160.53,269.36h-9.06a1.3,1.3,0,0,1-1.3-1.29V247.59a1.3,1.3,0,0,1,1.3-1.29h9.06a1.3,1.3,0,0,1,1.3,1.29v20.48A1.3,1.3,0,0,1,160.53,269.36Zm-9.06-23a1.24,1.24,0,0,0-1.25,1.24v20.48a1.25,1.25,0,0,0,1.25,1.24h9.06a1.25,1.25,0,0,0,1.25-1.24V247.59a1.24,1.24,0,0,0-1.25-1.24Z" style="fill:#263238"></path><path d="M149.24,282.76c-.14,0-.26-8.37-.26-18.7s.12-18.7.26-18.7.26,8.37.26,18.7S149.38,282.76,149.24,282.76Z" style="fill:#263238"></path><rect x="136.49" y="265.63" width="11.6" height="3.7" style="fill:#263238"></rect><rect x="150.2" y="265.63" width="11.6" height="3.7" style="fill:#263238"></rect><path d="M123.79,244.24H241.31V239.9l-110.89-.23a7.33,7.33,0,0,0-5,2.13Z" style="fill:#92E3A9"></path><path d="M117.68,241.21s1,.55.35,1.91c-.53,1.15-6.68,9.93-9.61,15.91s-4.6,10.3-4.6,10.3h-1.36s1.79-4.65,2.83-6.92c1.16-2.53,4.59-8.83,7.83-14.21Z" style="fill:#ebebeb"></path><path d="M241.31,275.91c0,.14-30.9.26-69,.26s-69-.12-69-.26,30.88-.26,69-.26S241.31,275.76,241.31,275.91Z" style="fill:#263238"></path><path d="M241.31,282.91l-133,.29a10.55,10.55,0,0,1-7.61-4.93H241.31Z" style="fill:#92E3A9"></path><path d="M132.85,234.45a3.48,3.48,0,0,1-.6.19c-.4.11-1,.28-1.72.54a22.81,22.81,0,0,0-5.87,3,13.38,13.38,0,0,0-1.67,1.39,18.55,18.55,0,0,0-1.51,1.81c-1,1.32-2,2.78-3,4.34-2,3.13-4.11,6.63-6.24,10.34s-3.81,7.45-5.33,10.83a56.65,56.65,0,0,0-3.42,9.21,9,9,0,0,0-.15,1,1.77,1.77,0,0,0,0,.46,1.31,1.31,0,0,0,.07.44,4.58,4.58,0,0,0,.89,1.46,15.73,15.73,0,0,0,2.06,2c.6.49,1.1.85,1.43,1.09a5.12,5.12,0,0,1,.5.39,2.2,2.2,0,0,1-.56-.3c-.35-.22-.87-.55-1.5-1a15.14,15.14,0,0,1-2.15-1.92,5,5,0,0,1-1-1.56,1.64,1.64,0,0,1-.09-.5,2.35,2.35,0,0,1,0-.53c0-.33.06-.69.14-1a53.82,53.82,0,0,1,3.34-9.33c1.5-3.41,3.25-7.11,5.32-10.89s4.26-7.22,6.29-10.35c1-1.56,2-3,3-4.34a19,19,0,0,1,1.58-1.84,14.35,14.35,0,0,1,1.73-1.4,21.57,21.57,0,0,1,6-2.9,16.87,16.87,0,0,1,1.76-.46A2.15,2.15,0,0,1,132.85,234.45Z" style="fill:#263238"></path><path d="M102.46,269.33a2.55,2.55,0,0,0,1.15-.48,2.6,2.6,0,0,0,.76-1.23l.8-1.85c.61-1.41,1.33-3,2.11-4.82a50.29,50.29,0,0,1,2.91-5.76c2.3-4,4.61-7.39,6.27-9.87l1.11-1.68a2.81,2.81,0,0,0,.57-1.33,1.23,1.23,0,0,0-.25-.85c-.13-.17-.23-.24-.21-.25s.12,0,.29.18a1.28,1.28,0,0,1,.37.92,2.91,2.91,0,0,1-.52,1.48c-.3.52-.66,1.09-1,1.73-1.59,2.53-3.85,6-6.13,9.93a55.33,55.33,0,0,0-2.92,5.71l-2.21,4.75q-.48,1-.87,1.83a6.65,6.65,0,0,1-.39.75,2.33,2.33,0,0,1-.52.52,1.93,1.93,0,0,1-.93.35C102.58,269.38,102.46,269.35,102.46,269.33Z" style="fill:#263238"></path><path d="M124.59,242.86a3.23,3.23,0,0,1,.3-.49A6,6,0,0,1,126,241.1a6.68,6.68,0,0,1,2.48-1.28,15.11,15.11,0,0,1,3.81-.24l24.64,0,84.34.09h.25v.25c0,10,0,20.43,0,31.13v.26H235.1l-109.75-.08-10,0a17,17,0,0,1-2.36-.08,3.25,3.25,0,0,1-2-1.22,3.13,3.13,0,0,1-.64-2.17,4.51,4.51,0,0,1,.82-2l7.21-12.36c2-3.37,3.53-6,4.58-7.79l1.2-2,.43-.68s-.12.25-.38.71-.65,1.16-1.16,2.05l-4.49,7.85c-2,3.4-4.36,7.56-7.14,12.4a4.27,4.27,0,0,0-.77,1.88,2.86,2.86,0,0,0,.58,2,3,3,0,0,0,1.8,1.1,17.3,17.3,0,0,0,2.3.06l10,0,109.75-.08h6.21l-.26.26V239.9l.25.25L157,239.88l-24.64-.12a15,15,0,0,0-3.78.19,6.67,6.67,0,0,0-2.45,1.22A7.37,7.37,0,0,0,124.59,242.86Z" style="fill:#263238"></path><g style="opacity:0.30000000000000004"><path d="M127.91,244.24v17.64l7.52,3.58V271H113.64a3.11,3.11,0,0,1-3.16-2.75h0a2.79,2.79,0,0,1,.27-1.46l13-22.58Z"></path></g><g style="opacity:0.6000000000000001"><polygon points="137.75 269.34 146.14 269.34 148.09 266.26 148.09 253.43 137.75 269.34" style="fill:#fff"></polygon></g><g style="opacity:0.6000000000000001"><polygon points="152.7 246.32 150.2 250.18 150.2 262.94 160.72 246.32 152.7 246.32" style="fill:#fff"></polygon></g><rect x="165.9" y="246.32" width="32.5" height="23.01" rx="2.13" style="fill:#f5f5f5"></rect><path d="M196.27,269.33a2.68,2.68,0,0,0,1-.32,2,2,0,0,0,.84-.94,3.8,3.8,0,0,0,.17-1.74c0-2.76,0-6.68-.08-11.51,0-1.21,0-2.48,0-3.81v-2a4.38,4.38,0,0,0-.06-1,2,2,0,0,0-.45-.84,2.13,2.13,0,0,0-.8-.52,3,3,0,0,0-1-.1h-6.94l-20.89,0a1.88,1.88,0,0,0-1.8,1.37,4.83,4.83,0,0,0-.07,1.29v1.36c0,1.8,0,3.58,0,5.33,0,3.49,0,6.86,0,10.07v1.2a1.87,1.87,0,0,0,.28,1,1.91,1.91,0,0,0,1.75.91h4.43l7.94,0,11.51.08,3.13,0,.81,0,.28,0-.28,0-.81,0-3.13.05-11.51.08-7.94,0h-4.43a2.38,2.38,0,0,1-2.15-1.11,2.3,2.3,0,0,1-.36-1.25V266c0-3.21,0-6.58,0-10.07v-6.69a5.47,5.47,0,0,1,.09-1.43,2.4,2.4,0,0,1,2.3-1.75l20.89,0h6.94a3.14,3.14,0,0,1,1.16.13,2.33,2.33,0,0,1,1,.64,2.28,2.28,0,0,1,.54,1,4.05,4.05,0,0,1,.06,1.08c0,.69,0,1.37,0,2,0,1.33,0,2.6,0,3.81,0,4.83-.07,8.75-.08,11.51a4.17,4.17,0,0,1-.24,1.81,2.17,2.17,0,0,1-.92,1,2,2,0,0,1-.79.23A.74.74,0,0,1,196.27,269.33Z" style="fill:#263238"></path><path d="M165.9,265.63h32.5a0,0,0,0,1,0,0v2.57a1.13,1.13,0,0,1-1.13,1.13H167a1.13,1.13,0,0,1-1.13-1.13v-2.57A0,0,0,0,1,165.9,265.63Z" style="fill:#263238"></path><g style="opacity:0.6000000000000001"><polygon points="185.13 246.32 170.18 269.34 178.57 269.34 193.16 246.32 185.13 246.32" style="fill:#fff"></polygon></g><rect x="201.09" y="246.32" width="32.5" height="23.01" rx="2.23" style="fill:#f5f5f5"></rect><path d="M231.36,269.33a2.69,2.69,0,0,0,1-.3,2.27,2.27,0,0,0,.88-.91,2.09,2.09,0,0,0,.22-.77c0-.29,0-.62,0-1,0-2.76-.05-6.67-.09-11.49,0-1.21,0-2.48,0-3.8,0-.67,0-1.34,0-2a4.51,4.51,0,0,0-.06-1,2,2,0,0,0-.43-.84,2.09,2.09,0,0,0-1.78-.71h-6.92l-20.86,0a2,2,0,0,0-1.87,1.32,3.94,3.94,0,0,0-.11,1.27v6.68c0,3.49,0,6.85,0,10.06v1.19a2.06,2.06,0,0,0,.27,1,2,2,0,0,0,1.71,1l4.42,0,7.93,0,11.48.08,3.13,0,.81,0,.28,0-.28,0-.81,0-3.13.05-11.48.08-7.93,0h-4.42a2.47,2.47,0,0,1-2.11-1.21,2.37,2.37,0,0,1-.34-1.25c0-.39,0-.79,0-1.19,0-3.21,0-6.57,0-10.06,0-1.75,0-3.52,0-5.32v-2.05a2.41,2.41,0,0,1,.13-.75,2.51,2.51,0,0,1,2.36-1.67l20.86,0h6.92a2.53,2.53,0,0,1,2.11.87,2.33,2.33,0,0,1,.51,1,4.52,4.52,0,0,1,.07,1.08c0,.69,0,1.36,0,2,0,1.32,0,2.59,0,3.8,0,4.82-.06,8.73-.08,11.49,0,.34,0,.65,0,1a2.3,2.3,0,0,1-1.23,1.75,2.11,2.11,0,0,1-.79.22A.74.74,0,0,1,231.36,269.33Z" style="fill:#263238"></path><path d="M201.09,265.63h32.5a0,0,0,0,1,0,0v2.47a1.24,1.24,0,0,1-1.24,1.24h-30a1.24,1.24,0,0,1-1.24-1.24v-2.47A0,0,0,0,1,201.09,265.63Z" style="fill:#263238"></path><g style="opacity:0.6000000000000001"><polygon points="220.33 246.32 205.38 269.34 213.77 269.34 228.35 246.32 220.33 246.32" style="fill:#fff"></polygon></g><rect x="392.17" y="238.93" width="10.48" height="41.78" style="fill:#455a64"></rect><g style="opacity:0.2"><rect x="392.17" y="238.93" width="10.48" height="41.78"></rect></g><polygon points="391.6 283.18 244.59 282.9 244.59 238.93 246.89 234.37 389.11 233.74 391.6 237.47 391.6 283.18" style="fill:#e0e0e0"></polygon><rect x="244.59" y="239.65" width="147.13" height="31.38" style="fill:#455a64"></rect><path d="M315.29,282.8H287.67V247.18a1.88,1.88,0,0,1,1.88-1.87h23.86a1.88,1.88,0,0,1,1.88,1.87Z" style="fill:#455a64"></path><path d="M315.29,282.8a1.5,1.5,0,0,1,0-.35c0-.25,0-.58,0-1,0-.9,0-2.16,0-3.78,0-3.29-.06-8-.09-13.78,0-2.9,0-6.08-.05-9.48,0-1.71,0-3.47,0-5.28v-1.37a2.85,2.85,0,0,0-.16-1.27,1.7,1.7,0,0,0-.87-.84,1.78,1.78,0,0,0-.61-.11H291c-.53,0-1.12,0-1.62,0a1.6,1.6,0,0,0-1.17.73,1.78,1.78,0,0,0-.26,1.08v8.76c0,3.27,0,6.46,0,9.54,0,6.17,0,11.92,0,17.11l-.21-.21,20,.11,5.6.05,1.48,0a3.28,3.28,0,0,1,.53,0,2.49,2.49,0,0,1-.48,0l-1.44,0-5.56,0-20.14.11h-.21v-.21c0-5.19,0-10.94,0-17.11,0-3.08,0-6.27,0-9.54v-8.76a2.3,2.3,0,0,1,.34-1.36,2.14,2.14,0,0,1,1.55-1c.61,0,1.12,0,1.68,0h9.65l12.07,0h.72a2,2,0,0,1,.79.16,2.13,2.13,0,0,1,1.12,1.07,3.36,3.36,0,0,1,.19,1.47v1.39c0,1.83,0,3.6,0,5.32,0,3.43,0,6.63,0,9.55,0,5.79-.07,10.49-.09,13.78,0,1.59,0,2.84-.05,3.72,0,.4,0,.71,0,1S315.29,282.81,315.29,282.8Z" style="fill:#263238"></path><rect x="288.73" y="246.31" width="11.6" height="23.01" rx="1.5" style="fill:#f5f5f5"></rect><rect x="302.44" y="246.31" width="11.6" height="23.01" rx="1.12" style="fill:#f5f5f5"></rect><path d="M301.48,282.75c-.14,0-.26-8.37-.26-18.7s.12-18.69.26-18.69.26,8.37.26,18.69S301.62,282.75,301.48,282.75Z" style="fill:#263238"></path><rect x="288.73" y="265.62" width="11.6" height="3.7" style="fill:#263238"></rect><rect x="302.44" y="265.62" width="11.6" height="3.7" style="fill:#263238"></rect><polygon points="244.59 239.67 244.59 244.23 391.72 244.23 391.72 239.89 244.59 239.67" style="fill:#92E3A9"></polygon><path d="M391.72,275.9c0,.14-32.94.26-73.56.26s-73.57-.12-73.57-.26,32.93-.26,73.57-.26S391.72,275.75,391.72,275.9Z" style="fill:#263238"></path><path d="M391.6,283.2l-147-.3v-4.34h147Z" style="fill:#92E3A9"></path><g style="opacity:0.6000000000000001"><g style="opacity:0.5"><polygon points="289.99 269.33 298.38 269.33 300.33 266.26 300.33 253.42 289.99 269.33" style="fill:#fff"></polygon></g><g style="opacity:0.5"><polygon points="304.94 246.31 302.44 250.18 302.44 262.93 312.96 246.31 304.94 246.31" style="fill:#fff"></polygon></g></g><rect x="318.14" y="246.31" width="32.5" height="23.01" rx="1.83" style="fill:#f5f5f5"></rect><path d="M348.81,269.33a2.32,2.32,0,0,0,1-.37,1.73,1.73,0,0,0,.69-1,11.41,11.41,0,0,0,0-1.79c0-2.77,0-6.71-.08-11.56,0-1.22,0-2.5,0-3.83,0-.67,0-1.35,0-2a3.83,3.83,0,0,0-.06-1,1.58,1.58,0,0,0-1.35-1.17c-.31,0-.72,0-1.08,0h-7l-21,0a1.59,1.59,0,0,0-1.57,1.49v2.73c0,1.81,0,3.6,0,5.35,0,3.51,0,6.9,0,10.13,0,.4,0,.8,0,1.2a1.63,1.63,0,0,0,.31,1,1.67,1.67,0,0,0,.82.59,4.12,4.12,0,0,0,1.08.07H325l8,0,11.56.09,3.14,0,.82,0,.28,0a.9.9,0,0,1-.28,0l-.82,0-3.14.05-11.56.08-8,0-4.45,0H320a2.41,2.41,0,0,1-.64-.09,2.1,2.1,0,0,1-1.06-.75,2.14,2.14,0,0,1-.4-1.25v-1.2c0-3.23,0-6.62,0-10.13V248a2.1,2.1,0,0,1,2.09-2l21,0h7c.39,0,.71,0,1.13,0a2.07,2.07,0,0,1,1.71,1.49,4.25,4.25,0,0,1,.07,1.1c0,.69,0,1.37,0,2,0,1.33,0,2.61,0,3.83,0,4.85-.07,8.79-.09,11.56a11.63,11.63,0,0,1-.08,1.83,1.9,1.9,0,0,1-.78,1.09,1.84,1.84,0,0,1-.78.28A1,1,0,0,1,348.81,269.33Z" style="fill:#263238"></path><path d="M318.14,265.62h32.5a0,0,0,0,1,0,0v2.87a.83.83,0,0,1-.83.83H319a.83.83,0,0,1-.83-.83v-2.87A0,0,0,0,1,318.14,265.62Z" style="fill:#263238"></path><g style="opacity:0.6000000000000001"><polygon points="337.37 246.31 322.42 269.33 330.81 269.33 345.39 246.31 337.37 246.31" style="fill:#fff"></polygon></g><rect x="353.33" y="246.31" width="32.5" height="23.01" rx="1.55" style="fill:#f5f5f5"></rect><path d="M384.28,269.33a1.91,1.91,0,0,0,1-.42,1.49,1.49,0,0,0,.5-1.13c0-.54,0-1.15,0-1.83,0-2.78-.05-6.73-.09-11.61,0-1.22,0-2.51,0-3.84,0-.67,0-1.36,0-2.05a3.77,3.77,0,0,0-.06-1,1.41,1.41,0,0,0-.55-.72,1.52,1.52,0,0,0-.93-.22H376l-21.09,0a1.32,1.32,0,0,0-1,.49,1.47,1.47,0,0,0-.25.52,4.1,4.1,0,0,0,0,.64v8.13c0,3.52,0,6.93,0,10.17v1.21a1.31,1.31,0,0,0,.34.93,1.28,1.28,0,0,0,.87.43h5.61l8,0,11.61.09,3.16,0,.82,0,.28,0a.9.9,0,0,1-.28,0l-.82,0-3.16.05-11.61.08-8,0-4.47,0h-1.17a1.82,1.82,0,0,1-1.19-.57,1.84,1.84,0,0,1-.47-1.25v-1.21c0-3.24,0-6.65,0-10.17,0-1.77,0-3.56,0-5.38v-2.75a3.37,3.37,0,0,1,.05-.75,1.89,1.89,0,0,1,.34-.73,1.84,1.84,0,0,1,1.42-.69l21.09,0h8.11a2,2,0,0,1,1.16.3,1.76,1.76,0,0,1,.72,1,4.37,4.37,0,0,1,.08,1.11c0,.69,0,1.38,0,2.05,0,1.33,0,2.62,0,3.84,0,4.88-.06,8.83-.08,11.61,0,.68,0,1.29,0,1.83a1.62,1.62,0,0,1-.59,1.21A1.3,1.3,0,0,1,384.28,269.33Z" style="fill:#263238"></path><path d="M353.33,265.62h32.5a0,0,0,0,1,0,0v3.15a.55.55,0,0,1-.55.55H353.89a.55.55,0,0,1-.55-.55v-3.15A0,0,0,0,1,353.33,265.62Z" style="fill:#263238"></path><g style="opacity:0.6000000000000001"><polygon points="372.57 246.31 357.62 269.33 366 269.33 380.59 246.31 372.57 246.31" style="fill:#fff"></polygon></g><rect x="251.55" y="246.31" width="32.5" height="23.01" rx="2.46" style="fill:#f5f5f5"></rect><path d="M281.58,269.33a3.34,3.34,0,0,0,1-.29,2.44,2.44,0,0,0,1.33-2.51c0-2.74-.05-6.64-.08-11.44,0-1.21,0-2.47,0-3.79,0-.66,0-1.33,0-2a4.56,4.56,0,0,0-.05-1,2.14,2.14,0,0,0-.41-.86,2.18,2.18,0,0,0-1.69-.89h-6.89l-20.78,0a2.23,2.23,0,0,0-2,1.24,2.43,2.43,0,0,0-.22,1.21v1.35c0,1.79,0,3.56,0,5.3,0,3.48,0,6.83,0,10,0,.4,0,.79,0,1.19a2.45,2.45,0,0,0,.26,1,2.22,2.22,0,0,0,1.64,1.16c1.44.06,3,0,4.36,0l7.91,0,11.44.09,3.11,0,.81,0,.27,0a.8.8,0,0,1-.27,0l-.81,0-3.11.05-11.44.08-7.91,0c-1.43,0-2.85,0-4.43,0a2.71,2.71,0,0,1-2-1.39,3,3,0,0,1-.31-1.24V265.7c0-3.2,0-6.55,0-10V249a2.94,2.94,0,0,1,.27-1.44,2.75,2.75,0,0,1,2.45-1.53l20.78,0h4.67l2.24,0a2.64,2.64,0,0,1,2,1.07,2.68,2.68,0,0,1,.47,1,4.49,4.49,0,0,1,.06,1.08c0,.69,0,1.36,0,2,0,1.32,0,2.58,0,3.79,0,4.8-.07,8.7-.09,11.44a2.81,2.81,0,0,1-.45,1.76,2.6,2.6,0,0,1-1,.85A2,2,0,0,1,281.58,269.33Z" style="fill:#263238"></path><path d="M251.55,265.62H284a0,0,0,0,1,0,0v1.82a1.88,1.88,0,0,1-1.88,1.88H253.43a1.88,1.88,0,0,1-1.88-1.88v-1.82A0,0,0,0,1,251.55,265.62Z" style="fill:#263238"></path><g style="opacity:0.6000000000000001"><polygon points="270.78 246.31 255.83 269.33 264.22 269.33 278.8 246.31 270.78 246.31" style="fill:#fff"></polygon></g><rect x="541.62" y="241.41" width="10.48" height="41.78" transform="translate(1093.72 524.61) rotate(180)" style="fill:#455a64"></rect><g style="opacity:0.2"><rect x="541.62" y="241.41" width="10.48" height="41.78" transform="translate(1093.72 524.61) rotate(180)"></rect></g><path d="M680.58,282.91a8,8,0,0,0,5.62-2.28c1.36-1.32,2.71-2.9,2.55-3.8a91.92,91.92,0,0,0-4.33-12.66c-1.92-4.48-12.32-23.25-16-26.1a16.64,16.64,0,0,0-5.15-2.36,32.51,32.51,0,0,0-9.35-1.32H549.57a26.22,26.22,0,0,0-1.92,4.48c-.16,1.12-.07,39.4-.07,39.4v4.64Z" style="fill:#e0e0e0"></path><path d="M664.3,242.86,678,266.49a3.05,3.05,0,0,1-2.75,4.54H547.58V239.9l111.06-.24A6.54,6.54,0,0,1,664.3,242.86Z" style="fill:#455a64"></path><path d="M625.84,282.81h27.61v-35a2.54,2.54,0,0,0-2.53-2.54H628.37a2.54,2.54,0,0,0-2.53,2.54Z" style="fill:#455a64"></path><path d="M625.84,282.81a1,1,0,0,1,0-.31c0-.25,0-.56,0-1,0-.88,0-2.12,0-3.7,0-3.27-.06-7.95-.09-13.72,0-2.91,0-6.09,0-9.51,0-1.71,0-3.48,0-5.3v-1.38a2.76,2.76,0,0,1,2.92-2.86H651a2.74,2.74,0,0,1,.89.16,2.81,2.81,0,0,1,1.4,1.12,2.68,2.68,0,0,1,.43,1.31c0,.46,0,.85,0,1.28v7.43c0,3.24,0,6.4,0,9.46,0,6.12,0,11.83,0,17V283h-.22l-20.14-.11-5.55-.06-1.44,0a3.91,3.91,0,0,1-.48,0l.52,0,1.49,0,5.6-.06,20-.11-.21.22c0-5.16,0-10.87,0-17,0-3.06,0-6.22,0-9.46,0-1.63,0-3.27,0-4.93v-2.5c0-.41,0-.86,0-1.24a2.26,2.26,0,0,0-.35-1.07,2.33,2.33,0,0,0-1.14-.91,4.41,4.41,0,0,0-1.53-.14h-9.61l-12,0a2.32,2.32,0,0,0-2.46,2.38v1.37c0,1.8,0,3.55,0,5.25,0,3.39,0,6.55,0,9.44,0,5.77-.07,10.45-.09,13.72,0,1.61,0,2.87,0,3.76,0,.41,0,.74,0,1S625.84,282.8,625.84,282.81Z" style="fill:#263238"></path><rect x="640.8" y="246.32" width="11.6" height="23.01" rx="1.17" transform="translate(1293.19 515.66) rotate(180)" style="fill:#f5f5f5"></rect><rect x="627.08" y="246.32" width="11.6" height="23.01" rx="1.4" transform="translate(1265.77 515.66) rotate(180)" style="fill:#f5f5f5"></rect><path d="M639.65,282.76c-.15,0-.27-8.37-.27-18.7s.12-18.7.27-18.7.26,8.37.26,18.7S639.79,282.76,639.65,282.76Z" style="fill:#263238"></path><rect x="640.8" y="265.63" width="11.6" height="3.7" transform="translate(1293.19 534.97) rotate(180)" style="fill:#263238"></rect><rect x="627.09" y="265.63" width="11.6" height="3.7" transform="translate(1265.77 534.97) rotate(180)" style="fill:#263238"></rect><path d="M665.09,244.24H547.58V239.9l110.89-.23a7.33,7.33,0,0,1,5,2.13Z" style="fill:#92E3A9"></path><path d="M671.21,241.21s-1,.55-.36,1.91c.54,1.15,6.69,9.93,9.62,15.91s4.59,10.3,4.59,10.3h1.36s-1.78-4.65-2.82-6.92c-1.17-2.53-4.6-8.83-7.83-14.21Z" style="fill:#ebebeb"></path><path d="M547.58,275.91c0-.15,30.89-.26,69-.26s69,.11,69,.26-30.89.26-69,.26S547.58,276.05,547.58,275.91Z" style="fill:#263238"></path><path d="M547.58,282.91l133,.29a10.51,10.51,0,0,0,7.6-4.93H547.58Z" style="fill:#92E3A9"></path><path d="M656,234.45a2.12,2.12,0,0,1,.63.08,15.67,15.67,0,0,1,1.76.46,21.57,21.57,0,0,1,6,2.9,13.69,13.69,0,0,1,1.74,1.4,19,19,0,0,1,1.57,1.84c1,1.32,2,2.78,3,4.34,2,3.13,4.15,6.62,6.3,10.35s3.82,7.48,5.32,10.89a52.89,52.89,0,0,1,3.33,9.33,10,10,0,0,1,.15,1,2.35,2.35,0,0,1,0,.53,1.39,1.39,0,0,1-.09.5,5,5,0,0,1-1,1.56,15.16,15.16,0,0,1-2.16,1.92c-.63.47-1.14.8-1.5,1a2.27,2.27,0,0,1-.55.3,3.87,3.87,0,0,1,.5-.39c.33-.24.82-.6,1.43-1.09a16.39,16.39,0,0,0,2.06-2,4.58,4.58,0,0,0,.89-1.46,1.3,1.3,0,0,0,.06-.44,1.76,1.76,0,0,0,0-.46c-.06-.33-.07-.66-.16-1A56.52,56.52,0,0,0,682,266.9c-1.52-3.38-3.28-7.07-5.34-10.83s-4.24-7.21-6.24-10.34c-1-1.56-2-3-3-4.34a17.29,17.29,0,0,0-1.52-1.81,14.06,14.06,0,0,0-1.66-1.39,23,23,0,0,0-5.87-3c-.74-.26-1.33-.43-1.72-.54A4.45,4.45,0,0,1,656,234.45Z" style="fill:#263238"></path><path d="M686.42,269.33s-.11.05-.34,0a2,2,0,0,1-.93-.35,2.11,2.11,0,0,1-.51-.52,6.65,6.65,0,0,1-.39-.75l-.87-1.83c-.65-1.38-1.39-3-2.21-4.75a57.39,57.39,0,0,0-2.92-5.71c-2.29-3.94-4.55-7.4-6.13-9.93-.4-.64-.75-1.21-1-1.73a2.82,2.82,0,0,1-.52-1.48,1.2,1.2,0,0,1,.37-.92c.16-.16.28-.2.29-.18s-.09.08-.21.25a1.23,1.23,0,0,0-.25.85,2.72,2.72,0,0,0,.57,1.33q.49.77,1.11,1.68c1.66,2.48,4,5.91,6.27,9.87a51.81,51.81,0,0,1,2.9,5.76l2.12,4.82.79,1.85a2.61,2.61,0,0,0,.77,1.23A2.54,2.54,0,0,0,686.42,269.33Z" style="fill:#263238"></path><path d="M664.3,242.86a7.72,7.72,0,0,0-1.51-1.69,6.67,6.67,0,0,0-2.45-1.22,15,15,0,0,0-3.79-.19l-24.64.12-84.33.27.25-.25c0,10,0,20.43,0,31.13l-.26-.26h6.2l109.76.08,10,0a17.5,17.5,0,0,0,2.31-.06,3,3,0,0,0,1.79-1.1,2.87,2.87,0,0,0,.59-2,4.27,4.27,0,0,0-.77-1.88c-2.78-4.84-5.18-9-7.14-12.4l-4.5-7.85c-.5-.89-.89-1.57-1.15-2.05s-.38-.71-.38-.71.15.23.42.68l1.2,2c1.06,1.79,2.6,4.42,4.58,7.79s4.41,7.55,7.22,12.36a4.51,4.51,0,0,1,.82,2,3.18,3.18,0,0,1-.64,2.17,3.31,3.31,0,0,1-2,1.22,17.12,17.12,0,0,1-2.37.08l-10,0-109.76.08h-6.46V271c0-10.7,0-21.13,0-31.13v-.25h.25l84.33-.09,24.64,0a15.23,15.23,0,0,1,3.82.24,6.68,6.68,0,0,1,2.48,1.28,6.27,6.27,0,0,1,1.15,1.27A4.87,4.87,0,0,1,664.3,242.86Z" style="fill:#263238"></path><g style="opacity:0.30000000000000004"><path d="M661,244.24v17.64l-7.52,3.58V271h21.79a3.1,3.1,0,0,0,3.15-2.75h0a2.79,2.79,0,0,0-.27-1.46l-13-22.58Z"></path></g><g style="opacity:0.6000000000000001"><g style="opacity:0.5"><polygon points="651.13 269.34 642.75 269.34 640.8 266.26 640.8 253.43 651.13 269.34" style="fill:#fff"></polygon></g><g style="opacity:0.5"><polygon points="636.18 246.32 638.69 250.18 638.69 262.94 628.16 246.32 636.18 246.32" style="fill:#fff"></polygon></g></g><rect x="590.49" y="246.32" width="32.5" height="23.01" rx="1.95" style="fill:#f5f5f5"></rect><path d="M592.44,269.33a.77.77,0,0,1-.28,0,1.88,1.88,0,0,1-.79-.26,2,2,0,0,1-.85-1,7,7,0,0,1-.13-1.83c0-2.76,0-6.69-.08-11.53,0-1.22,0-2.5,0-3.83,0-.66,0-1.34,0-2a4.63,4.63,0,0,1,.07-1.09,2.1,2.1,0,0,1,.58-1,2.21,2.21,0,0,1,1.05-.57,6.45,6.45,0,0,1,1.14-.05h7l21,0a2.21,2.21,0,0,1,2.18,1.88c0,1,0,1.85,0,2.77,0,1.81,0,3.6,0,5.35,0,3.5,0,6.88,0,10.11,0,.4,0,.8,0,1.2a2.16,2.16,0,0,1-.38,1.25,2.21,2.21,0,0,1-1,.8,2.91,2.91,0,0,1-1.22.14h-4.44l-8,0-11.54-.08-3.14-.05-.81,0a1,1,0,0,1-.28,0l.28,0,.81,0,3.14,0,11.54-.08,8,0h4.44a2.51,2.51,0,0,0,1-.13,1.7,1.7,0,0,0,.8-.63,1.79,1.79,0,0,0,.29-1v-1.2c0-3.23,0-6.61,0-10.11v-5.35c0-.88,0-1.85,0-2.69a1.71,1.71,0,0,0-1.67-1.44l-21,0h-7a7,7,0,0,0-1,0,1.73,1.73,0,0,0-.84.45,1.81,1.81,0,0,0-.47.8,3.94,3.94,0,0,0-.06,1c0,.69,0,1.37,0,2,0,1.33,0,2.61,0,3.83,0,4.84-.07,8.77-.09,11.53a7.09,7.09,0,0,0,.08,1.78,1.92,1.92,0,0,0,.76,1A2.31,2.31,0,0,0,592.44,269.33Z" style="fill:#263238"></path><path d="M591.44,265.63H622a1,1,0,0,1,1,1v2.75a0,0,0,0,1,0,0h-32.5a0,0,0,0,1,0,0v-2.75A1,1,0,0,1,591.44,265.63Z" transform="translate(1213.48 534.97) rotate(180)" style="fill:#263238"></path><g style="opacity:0.6000000000000001"><polygon points="603.75 246.32 618.7 269.34 610.32 269.34 595.73 246.32 603.75 246.32" style="fill:#fff"></polygon></g><rect x="555.3" y="246.32" width="32.5" height="23.01" rx="1.82" style="fill:#f5f5f5"></rect><path d="M557.11,269.33a.74.74,0,0,1-.28,0,1.8,1.8,0,0,1-.78-.28,1.93,1.93,0,0,1-.78-1.1,13.08,13.08,0,0,1-.07-1.83c0-2.77-.05-6.71-.09-11.56,0-1.22,0-2.5,0-3.83,0-.67,0-1.35,0-2a4.23,4.23,0,0,1,.07-1.1,2,2,0,0,1,1.71-1.48c.42,0,.75,0,1.13,0h7l21,0a2.09,2.09,0,0,1,2.08,2v8.11c0,3.51,0,6.9,0,10.13v1.2a2.08,2.08,0,0,1-.41,1.25,2,2,0,0,1-1.06.74,4.27,4.27,0,0,1-1.21.08H580.9l-8,0-11.56-.08-3.14-.05-.82,0-.28,0,.28,0,.82,0,3.14,0,11.56-.08,8,0h4.45a4.6,4.6,0,0,0,1.08-.07,1.6,1.6,0,0,0,.82-.58,1.67,1.67,0,0,0,.31-1c0-.4,0-.8,0-1.2,0-3.23,0-6.62,0-10.13,0-1.76,0-3.55,0-5.36v-2.73a1.56,1.56,0,0,0-1.56-1.49l-21,0h-7c-.36,0-.76,0-1.07,0a1.63,1.63,0,0,0-.87.38,1.58,1.58,0,0,0-.49.78,3.52,3.52,0,0,0-.06,1c0,.69,0,1.37,0,2,0,1.33,0,2.61,0,3.83,0,4.85-.06,8.79-.08,11.56a14.73,14.73,0,0,0,0,1.79,1.76,1.76,0,0,0,.69,1.05A2.17,2.17,0,0,0,557.11,269.33Z" style="fill:#263238"></path><path d="M556.12,265.63H587a.82.82,0,0,1,.82.82v2.88a0,0,0,0,1,0,0H555.3a0,0,0,0,1,0,0v-2.88A.82.82,0,0,1,556.12,265.63Z" transform="translate(1143.09 534.97) rotate(180)" style="fill:#263238"></path><g style="opacity:0.6000000000000001"><polygon points="568.56 246.32 583.51 269.34 575.12 269.34 560.53 246.32 568.56 246.32" style="fill:#fff"></polygon></g><polygon points="544.12 283.18 397.11 282.9 397.11 238.93 399.4 234.37 541.63 233.74 544.12 237.47 544.12 283.18" style="fill:#e0e0e0"></polygon><rect x="397.11" y="239.65" width="147.13" height="31.38" style="fill:#455a64"></rect><path d="M467.8,282.8H440.19V247a1.66,1.66,0,0,1,1.66-1.66h24.3A1.65,1.65,0,0,1,467.8,247Z" style="fill:#455a64"></path><path d="M467.8,282.8s0-.13,0-.35,0-.58,0-1c0-.9,0-2.17,0-3.78,0-3.3-.06-8-.1-13.81,0-2.9,0-6.08,0-9.5,0-1.7,0-3.47,0-5.28,0-.46,0-.91,0-1.37V247a1.47,1.47,0,0,0-.11-.59,1.41,1.41,0,0,0-.86-.81,5.25,5.25,0,0,0-1.35-.07h-23.4a1.38,1.38,0,0,0-1.18.64,1.67,1.67,0,0,0-.22,1.09v3.8c0,1.68,0,3.34,0,5v9.57c0,6.19,0,12,0,17.15l-.21-.21,20,.11,5.6.05,1.48,0a3,3,0,0,1,.52,0,2.23,2.23,0,0,1-.47,0l-1.45,0-5.55,0-20.14.11H440v-.21c0-5.2,0-11,0-17.15,0-3.09,0-6.29,0-9.57V247.3a2.22,2.22,0,0,1,.3-1.37,1.92,1.92,0,0,1,1.62-.88h11.32l12.08,0H466a2.2,2.2,0,0,1,.79.1,1.93,1.93,0,0,1,1.14,1.08,2.06,2.06,0,0,1,.14.77v.7c0,.47,0,.93,0,1.39,0,1.83,0,3.61,0,5.33,0,3.44,0,6.64,0,9.56,0,5.81-.08,10.51-.1,13.8,0,1.59,0,2.84,0,3.73,0,.4,0,.71,0,1A1,1,0,0,1,467.8,282.8Z" style="fill:#263238"></path><rect x="441.24" y="246.31" width="11.6" height="23.01" rx="1.06" style="fill:#f5f5f5"></rect><rect x="454.95" y="246.31" width="11.6" height="23.01" rx="1.06" style="fill:#f5f5f5"></rect><path d="M454,282.75c-.15,0-.26-8.37-.26-18.7s.11-18.69.26-18.69.26,8.37.26,18.69S454.14,282.75,454,282.75Z" style="fill:#263238"></path><rect x="441.24" y="265.62" width="11.6" height="3.7" style="fill:#263238"></rect><rect x="454.95" y="265.62" width="11.6" height="3.7" style="fill:#263238"></rect><polygon points="397.11 239.67 397.11 244.23 544.24 244.23 544.24 239.89 397.11 239.67" style="fill:#92E3A9"></polygon><path d="M544.24,275.9c0,.14-32.94.26-73.56.26s-73.57-.12-73.57-.26,32.93-.26,73.57-.26S544.24,275.75,544.24,275.9Z" style="fill:#263238"></path><path d="M544.12,283.2l-147-.3v-4.34h147Z" style="fill:#92E3A9"></path><g style="opacity:0.6000000000000001"><g style="opacity:0.5"><polygon points="442.51 269.33 450.9 269.33 452.85 266.26 452.85 253.42 442.51 269.33" style="fill:#fff"></polygon></g><g style="opacity:0.5"><polygon points="457.46 246.31 454.95 250.18 454.95 262.93 465.48 246.31 457.46 246.31" style="fill:#fff"></polygon></g></g><rect x="470.65" y="246.31" width="32.5" height="23.01" rx="2.09" style="fill:#f5f5f5"></rect><path d="M501.06,269.33a2.67,2.67,0,0,0,1-.33,2,2,0,0,0,.82-.95,4.33,4.33,0,0,0,.15-1.75c0-2.76-.05-6.68-.08-11.51,0-1.22,0-2.49,0-3.82,0-.66,0-1.34,0-2a4.51,4.51,0,0,0-.06-1,1.8,1.8,0,0,0-.45-.82,1.87,1.87,0,0,0-.81-.51,3.33,3.33,0,0,0-1-.08h-7l-20.91,0A1.84,1.84,0,0,0,471,248a6.76,6.76,0,0,0-.06,1.3V256c0,3.49,0,6.87,0,10.08v1.2A1.87,1.87,0,0,0,473,269.1h4.43l7.95,0,11.51.09,3.13,0,.81,0a1,1,0,0,1,.28,0,.84.84,0,0,1-.28,0l-.81,0-3.13.05-11.51.08-7.95,0-4.43,0a2.38,2.38,0,0,1-2.17-1.09,2.25,2.25,0,0,1-.36-1.24c0-.4,0-.8,0-1.2,0-3.21,0-6.59,0-10.08,0-1.75,0-3.53,0-5.34v-1.36a6.38,6.38,0,0,1,.08-1.42,2.35,2.35,0,0,1,2.27-1.78l20.91,0h7a3.56,3.56,0,0,1,1.15.11,2.44,2.44,0,0,1,1,.63,2.4,2.4,0,0,1,.54,1,4.63,4.63,0,0,1,.07,1.09c0,.69,0,1.37,0,2,0,1.33,0,2.6,0,3.82,0,4.83-.06,8.75-.08,11.51a4.34,4.34,0,0,1-.21,1.81,2,2,0,0,1-.91,1,1.84,1.84,0,0,1-.79.24A1,1,0,0,1,501.06,269.33Z" style="fill:#263238"></path><path d="M470.65,265.62h32.5a0,0,0,0,1,0,0v2.61a1.09,1.09,0,0,1-1.09,1.09H471.75a1.09,1.09,0,0,1-1.09-1.09v-2.61A0,0,0,0,1,470.65,265.62Z" style="fill:#263238"></path><g style="opacity:0.6000000000000001"><polygon points="489.89 246.31 474.94 269.33 483.33 269.33 497.91 246.31 489.89 246.31" style="fill:#fff"></polygon></g><rect x="505.85" y="246.31" width="32.5" height="23.01" rx="1.61" style="fill:#f5f5f5"></rect><path d="M536.74,269.33a2,2,0,0,0,1-.41,1.53,1.53,0,0,0,.54-1.11c0-.54,0-1.14,0-1.82,0-2.78,0-6.73-.08-11.6,0-1.22,0-2.51,0-3.84V248.5a3.8,3.8,0,0,0-.07-1,1.46,1.46,0,0,0-.53-.74,1.56,1.56,0,0,0-.91-.25h-8.1l-21.07,0a1.39,1.39,0,0,0-1.35,1.61v2.75c0,1.82,0,3.61,0,5.37,0,3.53,0,6.93,0,10.16v1.21a1.38,1.38,0,0,0,1.19,1.41c.33,0,.76,0,1.13,0h4.46l8,0,11.6.09,3.16,0,.82,0,.28,0a.9.9,0,0,1-.28,0l-.82,0-3.16.05-11.6.08-8,0-4.46,0c-.4,0-.74,0-1.19,0a1.84,1.84,0,0,1-1.61-1.87v-1.21c0-3.23,0-6.63,0-10.16v-8.12a2,2,0,0,1,.44-1.47,1.91,1.91,0,0,1,1.43-.66l21.07,0h8.1a1.83,1.83,0,0,1,1.15.34,1.8,1.8,0,0,1,.7,1,3.85,3.85,0,0,1,.07,1.1v2.05c0,1.33,0,2.62,0,3.84,0,4.87-.06,8.82-.08,11.6q0,1,0,1.83a1.67,1.67,0,0,1-.64,1.19,1.69,1.69,0,0,1-.76.32A1,1,0,0,1,536.74,269.33Z" style="fill:#263238"></path><path d="M505.85,265.62h32.5a0,0,0,0,1,0,0v3.09a.61.61,0,0,1-.61.61H506.46a.61.61,0,0,1-.61-.61v-3.09A0,0,0,0,1,505.85,265.62Z" style="fill:#263238"></path><g style="opacity:0.6000000000000001"><polygon points="525.09 246.31 510.13 269.33 518.52 269.33 533.11 246.31 525.09 246.31" style="fill:#fff"></polygon></g><rect x="404.06" y="246.31" width="32.5" height="23.01" rx="2.05" style="fill:#f5f5f5"></rect><path d="M434.51,269.33a2.85,2.85,0,0,0,1-.33,2,2,0,0,0,.81-1,4.8,4.8,0,0,0,.13-1.76c0-2.76,0-6.68-.08-11.51,0-1.22,0-2.5,0-3.82,0-.67,0-1.34,0-2a3.94,3.94,0,0,0-.06-1,1.68,1.68,0,0,0-.46-.82,1.74,1.74,0,0,0-.81-.49,3.45,3.45,0,0,0-1-.07H427l-20.92,0a1.81,1.81,0,0,0-1.75,1.4,9.09,9.09,0,0,0-.05,1.31V256c0,3.5,0,6.88,0,10.09v1.2a1.85,1.85,0,0,0,.29,1,1.89,1.89,0,0,0,1.79.84h4.43l8,0,11.51.09,3.14,0,.81,0,.28,0a.9.9,0,0,1-.28,0l-.81,0-3.14.05-11.51.08-8,0-4.43,0a2.38,2.38,0,0,1-2.19-1.05,2.3,2.3,0,0,1-.36-1.25c0-.39,0-.79,0-1.2,0-3.21,0-6.59,0-10.09,0-1.75,0-3.53,0-5.33v-1.36a8.91,8.91,0,0,1,.06-1.43,2.34,2.34,0,0,1,2.26-1.8l20.92,0H434a4.25,4.25,0,0,1,1.16.09,2.35,2.35,0,0,1,1,.62,2.26,2.26,0,0,1,.55,1,4.6,4.6,0,0,1,.07,1.09c0,.69,0,1.36,0,2,0,1.32,0,2.6,0,3.82,0,4.83-.06,8.75-.08,11.51a4.58,4.58,0,0,1-.19,1.82,2.13,2.13,0,0,1-.9,1,1.8,1.8,0,0,1-.78.24A1,1,0,0,1,434.51,269.33Z" style="fill:#263238"></path><path d="M404.06,265.62h32.5a0,0,0,0,1,0,0v2.65a1.06,1.06,0,0,1-1.06,1.06H405.12a1.06,1.06,0,0,1-1.06-1.06v-2.65A0,0,0,0,1,404.06,265.62Z" style="fill:#263238"></path><g style="opacity:0.6000000000000001"><polygon points="423.3 246.31 408.35 269.33 416.74 269.33 431.32 246.31 423.3 246.31" style="fill:#fff"></polygon></g><rect x="236.79" y="241.41" width="10.48" height="41.78" style="fill:#455a64"></rect><g style="opacity:0.2"><rect x="236.79" y="241.41" width="10.48" height="41.78"></rect></g><path d="M720.79,218.72c0,.15-155.18.26-346.56.26s-346.6-.11-346.6-.26,155.15-.26,346.6-.26S720.79,218.58,720.79,218.72Z" style="fill:#263238"></path><rect x="186.66" y="215.11" width="19.08" height="6.13" style="fill:#263238"></rect></g></svg>